<svg xmlns="http://www.w3.org/2000/svg" viewBox="0 0 125.44 90.86"><title>Element 1logo_svg_1</title><g id="Ebene_2" data-name="Ebene 2"><g id="Ebene_1-2" data-name="Ebene 1"><path d="M75.06,1.12c-1.6,1.6-30.8,5.9-35.4,5.2-3.2-.5-3.9-.2-4.9,1.8-1.3,2.6-24.4,23.3-28,25.2-2.1,1-2.4,1.9-2.6,7.8-.3,9.8-2.1,22.5-3.5,24.7-.9,1.5-.9,2.3.1,3.5a4.6,4.6,0,0,0,2.7,1.6c2.5,0,35.1,16.8,35.7,18.4.9,2.2,3.4,2,4.9-.4s18.1-16,19.5-16a13.21,13.21,0,0,0,3.9-1.4c4-2,14.3-3.7,19.6-3.3,4.9.4,20.5,5.4,21.3,6.8,1.4,2.2,3.6.5,7.9-6,2.5-3.8,5.5-7.1,6.6-7.4,1.8-.5,1.9-1.1,1.3-7.1-.4-4.5-.2-7,.6-8,1.3-1.6.6-5.6-1-5.6-1.2,0-8.8-16.2-9.7-20.9-.6-2.9-1.3-3.7-3.7-4.2-4.6-1-27.6-11.7-30-13.9S76.76-.58,75.06,1.12Zm-8.6,7.4c-5.9,4-10.4,4.7-16.7,2.5l-5.4-1.8,6-.8c3.3-.4,8-1.1,10.5-1.5s5.6-.8,7-.9C70.06,5.92,70,6.22,66.46,8.52Zm11.3,6.3c.6,4,1,7.5.8,7.8s-4.2-1.4-8.8-3.5l-8.4-3.9,7-4.6c3.9-2.5,7.3-4.2,7.6-3.9A49.55,49.55,0,0,1,77.76,14.82Zm20.8-.6c4,1.7,7,3.3,6.7,3.6-.8.9-17.7,5-20.6,5-3.1.1-3.4-.6-4.4-10.2l-.6-6.8,5.8,2.6C88.76,9.92,94.56,12.52,98.56,14.22Zm-51.5-1.1c3.7,1.2,6.8,2.4,6.8,2.7,0,.7-19.4,12.1-19.7,11.7s3.6-14.7,4.3-15.8S39.36,10.62,47.06,13.12Zm-14.3,7.5c-1,3.7-2.6,7.4-3.4,8.3s-5.2,2.2-9.6,3.1c-7.9,1.6-8.1,1.6-6.2-.2,3.9-4,19.8-17.8,20.5-17.8C34.46,13.92,33.86,16.92,32.76,20.62Zm26.5,7.2c.9,4.6,1.6,8.9,1.6,9.6s-3.6.1-11.8-2.4c-6.4-2-12-4-12.2-4.4-.6-1,19.3-12.8,20.2-11.9A51.84,51.84,0,0,1,59.26,27.82Zm17.4-1.3c-.3,1.3-10.8,10.4-11.9,10.4-.8,0-2.6-7.5-3.6-14.7l-.6-4.3,8.2,3.8C73.26,23.72,76.76,25.92,76.66,26.52Zm27.5.4c-1.9,3.3-4.2,6-4.9,6-2,0-13.7-6-13.1-6.7s17.6-5.1,19.9-5.2C107.46,20.92,107.06,22,104.16,26.92Zm11.5,4.2c2.3,5,4.1,9.2,3.9,9.5-.8.8-15.7-5.2-15.7-6.3,0-1.4,6.2-12.4,7-12.3C111.16,22,113.26,26.12,115.66,31.12Zm-25.3,1c3.6,1.8,6.5,3.5,6.5,3.9,0,1.7-12.6,9.9-15.1,9.9-3.3,0-15.1-4.9-14.7-6.1.7-2.1,12.4-10.9,14.5-10.9C82.76,28.92,86.76,30.32,90.36,32.12Zm-64.2,3.1c-2.6,4.3-8,10.6-9,10.7-1.4,0-7.8-7.9-7-8.6s11.3-3.1,14.5-3.3Q27.06,33.87,26.16,35.22Zm19.9,1.9c6,1.7,10.8,3.4,10.8,3.7,0,1.1-16.7,6.4-18.2,5.8-.8-.3-2-2.5-2.6-5s-1.4-5.2-1.8-6.1C33.46,33.42,33.66,33.42,46.06,37.12Zm-13.3,3.2a58,58,0,0,0,1.7,6c.5,1.4-.3,1.6-6.5,1.6-3.9,0-7.1-.2-7.1-.5,0-1.2,9.4-12.4,10-12C31.26,35.72,32.16,37.82,32.76,40.32Zm77.5,7.7c4.8,5,8.6,9.3,8.4,9.5-1.2,1.1-27.9,5.9-29.1,5.2-2-1.1-5-10.2-4.2-12.7.7-2.3,12.2-11,14.6-11.1C100.86,38.92,105.56,43,110.26,48Zm4.2-5.6c6,2.1,7.4,3.9,6.5,8.6l-.6,3.4-7-7.4c-3.8-4.1-6.3-7.2-5.5-6.9S111.66,41.42,114.46,42.42Zm-103.2,1.9c1.4,1.9,2.6,4,2.6,4.7a6.81,6.81,0,0,0,1.8,3.3,23.58,23.58,0,0,1,3.4,6.4c1.5,3.9,1.5,4.3,0,5.1-2.6,1.3-13,2.2-13.7,1.2-.7-1.3,1.7-24.1,2.6-24.1C8.26,40.92,9.76,42.42,11.26,44.32Zm51.1,11.3c.6,10.1.5,11.3-1,11.9-2.4,1-17.7-1.4-19.3-2.9-1.9-2-3.3-11.9-1.9-13.4,1.7-1.7,20.1-8.3,20.8-7.5C61.36,44.12,62,49.52,62.36,55.62Zm9.8-9.5c6.3,2.6,9.3,5.5,11.2,10.9,2.2,6.1,1.9,7.7-1.2,8.3-14.4,2.8-15.5,2.9-16.4,1.5-1.3-2.1-1.1-22.9.2-22.9A33.69,33.69,0,0,1,72.16,46.12Zm-39.3,5.5c-.1,1-9,10.7-9.4,10.2a62,62,0,0,1-3.6-9.9c0-.6,2.9-1,6.5-1S32.86,51.22,32.86,51.62Zm4,4a52.76,52.76,0,0,0,.6,5.5l.7,3.8-3.9-.1a20.08,20.08,0,0,1-5.8-.8c-1.8-.7-1.6-1.2,2.3-5.4C35.46,53.62,36.86,52.92,36.86,55.62Zm81,5.9c0,1.4-6.4,9.3-7.9,9.6-.9.3-5-.8-9.1-2.3a50.72,50.72,0,0,1-7-2.9c1-.3,22.5-4.8,23.3-4.9A.54.54,0,0,1,117.86,61.52Zm-95.7,6.7c2.2,1.1,12.7,12.8,12.7,14.2,0,.2-6.1-2.5-13.5-6.2s-13.1-7.1-12.7-7.5a17.62,17.62,0,0,1,4.7-1.1c2.2-.2,4.5-.4,5.1-.5A8.6,8.6,0,0,1,22.16,68.22Zm15.4,1.1c.6.6,1.4,4,1.8,7.6.6,5.7.5,6.3-.8,5-2.5-2.6-11.7-14.1-11.7-14.6C26.86,66.32,36.36,68.12,37.56,69.32Zm19.9,1.5c2.6.7,2.4.9-5.7,7.4-4.6,3.6-8.5,6.4-8.7,6.2a53.88,53.88,0,0,1-.9-8.1l-.6-7.7,6.6.7A86.12,86.12,0,0,1,57.46,70.82Z"/></g></g></svg>